<mxfile host="Electron" agent="Mozilla/5.0 (Windows NT 10.0; Win64; x64) AppleWebKit/537.36 (KHTML, like Gecko) draw.io/24.7.17 Chrome/128.0.6613.36 Electron/32.0.1 Safari/537.36" version="24.7.17">
  <diagram name="Page-1" id="_EUECbzG8x34JFt9P-rt">
    <mxGraphModel dx="3636" dy="1133" grid="1" gridSize="10" guides="1" tooltips="1" connect="1" arrows="1" fold="1" page="1" pageScale="1" pageWidth="850" pageHeight="1100" math="0" shadow="0">
      <root>
        <mxCell id="0" />
        <mxCell id="1" parent="0" />
        <mxCell id="UwY63YREE8ykorndjuQu-1" value="" style="rhombus;whiteSpace=wrap;html=1;fillColor=#6a00ff;fontColor=#ffffff;strokeColor=#3700CC;" vertex="1" parent="1">
          <mxGeometry x="-556.25" y="735" width="52.5" height="50" as="geometry" />
        </mxCell>
        <mxCell id="7YrPoQk4Cotq5ZZ0fGn4-1" value="Employee" style="rounded=0;whiteSpace=wrap;html=1;" parent="1" vertex="1">
          <mxGeometry x="-650" y="270" width="180" height="60" as="geometry" />
        </mxCell>
        <mxCell id="7YrPoQk4Cotq5ZZ0fGn4-11" value="" style="endArrow=none;html=1;rounded=0;exitX=0.042;exitY=-0.013;exitDx=0;exitDy=0;exitPerimeter=0;entryX=0.5;entryY=1;entryDx=0;entryDy=0;" parent="1" source="7YrPoQk4Cotq5ZZ0fGn4-1" target="7YrPoQk4Cotq5ZZ0fGn4-23" edge="1">
          <mxGeometry width="50" height="50" relative="1" as="geometry">
            <mxPoint x="-640" y="270" as="sourcePoint" />
            <mxPoint x="-700" y="210" as="targetPoint" />
          </mxGeometry>
        </mxCell>
        <mxCell id="7YrPoQk4Cotq5ZZ0fGn4-12" value="" style="endArrow=none;html=1;rounded=0;exitX=0.198;exitY=0.01;exitDx=0;exitDy=0;exitPerimeter=0;entryX=0.5;entryY=1;entryDx=0;entryDy=0;" parent="1" source="7YrPoQk4Cotq5ZZ0fGn4-1" target="7YrPoQk4Cotq5ZZ0fGn4-29" edge="1">
          <mxGeometry width="50" height="50" relative="1" as="geometry">
            <mxPoint x="-620" y="270" as="sourcePoint" />
            <mxPoint x="-600" y="130" as="targetPoint" />
          </mxGeometry>
        </mxCell>
        <mxCell id="7YrPoQk4Cotq5ZZ0fGn4-13" value="" style="endArrow=none;html=1;rounded=0;exitX=0.75;exitY=0;exitDx=0;exitDy=0;entryX=0.369;entryY=1.006;entryDx=0;entryDy=0;entryPerimeter=0;" parent="1" source="7YrPoQk4Cotq5ZZ0fGn4-1" target="7YrPoQk4Cotq5ZZ0fGn4-34" edge="1">
          <mxGeometry width="50" height="50" relative="1" as="geometry">
            <mxPoint x="-540" y="260" as="sourcePoint" />
            <mxPoint x="-440" y="170" as="targetPoint" />
          </mxGeometry>
        </mxCell>
        <mxCell id="7YrPoQk4Cotq5ZZ0fGn4-14" value="" style="endArrow=none;html=1;rounded=0;exitX=0.405;exitY=-0.006;exitDx=0;exitDy=0;exitPerimeter=0;entryX=0.5;entryY=1;entryDx=0;entryDy=0;" parent="1" source="7YrPoQk4Cotq5ZZ0fGn4-1" target="7YrPoQk4Cotq5ZZ0fGn4-31" edge="1">
          <mxGeometry width="50" height="50" relative="1" as="geometry">
            <mxPoint x="-600" y="270" as="sourcePoint" />
            <mxPoint x="-580" y="140" as="targetPoint" />
          </mxGeometry>
        </mxCell>
        <mxCell id="7YrPoQk4Cotq5ZZ0fGn4-15" value="" style="endArrow=none;html=1;rounded=0;exitX=0.603;exitY=-0.03;exitDx=0;exitDy=0;exitPerimeter=0;entryX=0.485;entryY=0.901;entryDx=0;entryDy=0;entryPerimeter=0;" parent="1" source="7YrPoQk4Cotq5ZZ0fGn4-1" target="7YrPoQk4Cotq5ZZ0fGn4-32" edge="1">
          <mxGeometry width="50" height="50" relative="1" as="geometry">
            <mxPoint x="-580" y="280" as="sourcePoint" />
            <mxPoint x="-480" y="90" as="targetPoint" />
          </mxGeometry>
        </mxCell>
        <mxCell id="7YrPoQk4Cotq5ZZ0fGn4-16" value="" style="endArrow=none;html=1;rounded=0;exitX=0.935;exitY=-0.013;exitDx=0;exitDy=0;exitPerimeter=0;entryX=0.5;entryY=1;entryDx=0;entryDy=0;" parent="1" source="7YrPoQk4Cotq5ZZ0fGn4-1" target="7YrPoQk4Cotq5ZZ0fGn4-35" edge="1">
          <mxGeometry width="50" height="50" relative="1" as="geometry">
            <mxPoint x="-540" y="270" as="sourcePoint" />
            <mxPoint x="-400" y="210" as="targetPoint" />
          </mxGeometry>
        </mxCell>
        <mxCell id="7YrPoQk4Cotq5ZZ0fGn4-17" value="" style="endArrow=none;html=1;rounded=0;exitX=0.7;exitY=0;exitDx=0;exitDy=0;exitPerimeter=0;entryX=0.212;entryY=0.897;entryDx=0;entryDy=0;entryPerimeter=0;" parent="1" source="7YrPoQk4Cotq5ZZ0fGn4-1" target="7YrPoQk4Cotq5ZZ0fGn4-33" edge="1">
          <mxGeometry width="50" height="50" relative="1" as="geometry">
            <mxPoint x="-575" y="280" as="sourcePoint" />
            <mxPoint x="-440" y="100" as="targetPoint" />
          </mxGeometry>
        </mxCell>
        <mxCell id="7YrPoQk4Cotq5ZZ0fGn4-18" value="" style="endArrow=none;html=1;rounded=0;exitX=0.1;exitY=0;exitDx=0;exitDy=0;exitPerimeter=0;entryX=0.5;entryY=1;entryDx=0;entryDy=0;" parent="1" source="7YrPoQk4Cotq5ZZ0fGn4-1" target="7YrPoQk4Cotq5ZZ0fGn4-28" edge="1">
          <mxGeometry width="50" height="50" relative="1" as="geometry">
            <mxPoint x="-630" y="270" as="sourcePoint" />
            <mxPoint x="-650" y="200" as="targetPoint" />
          </mxGeometry>
        </mxCell>
        <mxCell id="7YrPoQk4Cotq5ZZ0fGn4-23" value="Emp_Id" style="ellipse;whiteSpace=wrap;html=1;" parent="1" vertex="1">
          <mxGeometry x="-760" y="190" width="80" height="40" as="geometry" />
        </mxCell>
        <mxCell id="7YrPoQk4Cotq5ZZ0fGn4-24" value="Floor" style="rounded=0;whiteSpace=wrap;html=1;" parent="1" vertex="1">
          <mxGeometry x="-57.5" y="245" width="180" height="60" as="geometry" />
        </mxCell>
        <mxCell id="7YrPoQk4Cotq5ZZ0fGn4-25" value="" style="endArrow=none;html=1;rounded=0;exitX=0.042;exitY=-0.013;exitDx=0;exitDy=0;exitPerimeter=0;entryX=0.5;entryY=1;entryDx=0;entryDy=0;" parent="1" source="7YrPoQk4Cotq5ZZ0fGn4-24" target="7YrPoQk4Cotq5ZZ0fGn4-176" edge="1">
          <mxGeometry width="50" height="50" relative="1" as="geometry">
            <mxPoint x="-57.49999999999994" y="235" as="sourcePoint" />
            <mxPoint x="-117.5" y="175" as="targetPoint" />
          </mxGeometry>
        </mxCell>
        <mxCell id="7YrPoQk4Cotq5ZZ0fGn4-26" value="" style="endArrow=none;html=1;rounded=0;exitX=0.5;exitY=0;exitDx=0;exitDy=0;entryX=0.5;entryY=1;entryDx=0;entryDy=0;" parent="1" source="7YrPoQk4Cotq5ZZ0fGn4-24" target="7YrPoQk4Cotq5ZZ0fGn4-178" edge="1">
          <mxGeometry width="50" height="50" relative="1" as="geometry">
            <mxPoint x="42.5" y="235" as="sourcePoint" />
            <mxPoint x="152.5" y="175" as="targetPoint" />
          </mxGeometry>
        </mxCell>
        <mxCell id="7YrPoQk4Cotq5ZZ0fGn4-27" value="" style="endArrow=none;html=1;rounded=0;exitX=0.25;exitY=0;exitDx=0;exitDy=0;entryX=0.568;entryY=0.912;entryDx=0;entryDy=0;entryPerimeter=0;" parent="1" source="7YrPoQk4Cotq5ZZ0fGn4-24" target="7YrPoQk4Cotq5ZZ0fGn4-177" edge="1">
          <mxGeometry width="50" height="50" relative="1" as="geometry">
            <mxPoint x="-47.5" y="235" as="sourcePoint" />
            <mxPoint x="-67.5" y="165" as="targetPoint" />
          </mxGeometry>
        </mxCell>
        <mxCell id="7YrPoQk4Cotq5ZZ0fGn4-28" value="Fname" style="ellipse;whiteSpace=wrap;html=1;" parent="1" vertex="1">
          <mxGeometry x="-730" y="140" width="80" height="40" as="geometry" />
        </mxCell>
        <mxCell id="7YrPoQk4Cotq5ZZ0fGn4-29" value="Lname" style="ellipse;whiteSpace=wrap;html=1;" parent="1" vertex="1">
          <mxGeometry x="-690" y="90" width="80" height="40" as="geometry" />
        </mxCell>
        <mxCell id="7YrPoQk4Cotq5ZZ0fGn4-31" value="Email" style="ellipse;whiteSpace=wrap;html=1;" parent="1" vertex="1">
          <mxGeometry x="-620" y="130" width="80" height="40" as="geometry" />
        </mxCell>
        <mxCell id="7YrPoQk4Cotq5ZZ0fGn4-32" value="Salary" style="ellipse;whiteSpace=wrap;html=1;" parent="1" vertex="1">
          <mxGeometry x="-550" y="80" width="80" height="40" as="geometry" />
        </mxCell>
        <mxCell id="7YrPoQk4Cotq5ZZ0fGn4-33" value="DateOfBirth" style="ellipse;whiteSpace=wrap;html=1;" parent="1" vertex="1">
          <mxGeometry x="-460" y="90" width="80" height="40" as="geometry" />
        </mxCell>
        <mxCell id="7YrPoQk4Cotq5ZZ0fGn4-34" value="Bonus" style="ellipse;whiteSpace=wrap;html=1;" parent="1" vertex="1">
          <mxGeometry x="-450" y="140" width="80" height="40" as="geometry" />
        </mxCell>
        <mxCell id="7YrPoQk4Cotq5ZZ0fGn4-35" value="Address" style="ellipse;whiteSpace=wrap;html=1;" parent="1" vertex="1">
          <mxGeometry x="-440" y="201" width="80" height="40" as="geometry" />
        </mxCell>
        <mxCell id="7YrPoQk4Cotq5ZZ0fGn4-36" value="" style="endArrow=none;html=1;rounded=0;" parent="1" edge="1">
          <mxGeometry width="50" height="50" relative="1" as="geometry">
            <mxPoint x="-745" y="220.77999999999997" as="sourcePoint" />
            <mxPoint x="-695" y="220.77999999999997" as="targetPoint" />
          </mxGeometry>
        </mxCell>
        <mxCell id="7YrPoQk4Cotq5ZZ0fGn4-37" value="" style="endArrow=none;html=1;rounded=0;exitX=0.005;exitY=0.19;exitDx=0;exitDy=0;exitPerimeter=0;entryX=0.808;entryY=0.878;entryDx=0;entryDy=0;entryPerimeter=0;" parent="1" source="7YrPoQk4Cotq5ZZ0fGn4-1" target="7YrPoQk4Cotq5ZZ0fGn4-38" edge="1">
          <mxGeometry width="50" height="50" relative="1" as="geometry">
            <mxPoint x="-652" y="280" as="sourcePoint" />
            <mxPoint x="-730" y="260" as="targetPoint" />
          </mxGeometry>
        </mxCell>
        <mxCell id="7YrPoQk4Cotq5ZZ0fGn4-38" value="&lt;font style=&quot;font-size: 10px;&quot;&gt;PhoneNumber&lt;/font&gt;" style="ellipse;whiteSpace=wrap;html=1;" parent="1" vertex="1">
          <mxGeometry x="-820" y="240" width="80" height="40" as="geometry" />
        </mxCell>
        <mxCell id="7YrPoQk4Cotq5ZZ0fGn4-39" value="&lt;font style=&quot;font-size: 11px;&quot;&gt;Supervisor_Id &lt;/font&gt;" style="ellipse;whiteSpace=wrap;html=1;" parent="1" vertex="1">
          <mxGeometry x="-390" y="240" width="80" height="40" as="geometry" />
        </mxCell>
        <mxCell id="7YrPoQk4Cotq5ZZ0fGn4-40" value="" style="endArrow=none;dashed=1;html=1;rounded=0;" parent="1" edge="1">
          <mxGeometry width="50" height="50" relative="1" as="geometry">
            <mxPoint x="-375" y="270" as="sourcePoint" />
            <mxPoint x="-325" y="270" as="targetPoint" />
          </mxGeometry>
        </mxCell>
        <mxCell id="7YrPoQk4Cotq5ZZ0fGn4-41" value="" style="endArrow=none;html=1;rounded=0;exitX=1;exitY=0.25;exitDx=0;exitDy=0;entryX=0;entryY=1;entryDx=0;entryDy=0;" parent="1" source="7YrPoQk4Cotq5ZZ0fGn4-1" target="7YrPoQk4Cotq5ZZ0fGn4-39" edge="1">
          <mxGeometry width="50" height="50" relative="1" as="geometry">
            <mxPoint x="-462" y="288" as="sourcePoint" />
            <mxPoint x="-380" y="260" as="targetPoint" />
          </mxGeometry>
        </mxCell>
        <mxCell id="7YrPoQk4Cotq5ZZ0fGn4-42" value="&lt;font style=&quot;font-size: 10px;&quot;&gt;Floor_Id&lt;/font&gt;" style="ellipse;whiteSpace=wrap;html=1;" parent="1" vertex="1">
          <mxGeometry x="-825" y="290" width="80" height="40" as="geometry" />
        </mxCell>
        <mxCell id="7YrPoQk4Cotq5ZZ0fGn4-43" value="" style="endArrow=none;html=1;rounded=0;exitX=0;exitY=0.5;exitDx=0;exitDy=0;entryX=1;entryY=0.5;entryDx=0;entryDy=0;" parent="1" source="7YrPoQk4Cotq5ZZ0fGn4-1" target="7YrPoQk4Cotq5ZZ0fGn4-42" edge="1">
          <mxGeometry width="50" height="50" relative="1" as="geometry">
            <mxPoint x="-650" y="340" as="sourcePoint" />
            <mxPoint x="-756" y="334" as="targetPoint" />
          </mxGeometry>
        </mxCell>
        <mxCell id="7YrPoQk4Cotq5ZZ0fGn4-44" value="" style="endArrow=none;dashed=1;html=1;rounded=0;" parent="1" edge="1">
          <mxGeometry width="50" height="50" relative="1" as="geometry">
            <mxPoint x="-807" y="320" as="sourcePoint" />
            <mxPoint x="-762" y="320" as="targetPoint" />
          </mxGeometry>
        </mxCell>
        <mxCell id="7YrPoQk4Cotq5ZZ0fGn4-176" value="&lt;font style=&quot;font-size: 10px;&quot;&gt;Floor_Id&lt;/font&gt;" style="ellipse;whiteSpace=wrap;html=1;" parent="1" vertex="1">
          <mxGeometry x="-177.5" y="125" width="80" height="40" as="geometry" />
        </mxCell>
        <mxCell id="7YrPoQk4Cotq5ZZ0fGn4-177" value="&lt;font style=&quot;font-size: 10px;&quot;&gt;FloorNumber&lt;/font&gt;" style="ellipse;whiteSpace=wrap;html=1;" parent="1" vertex="1">
          <mxGeometry x="-97.5" y="105" width="80" height="40" as="geometry" />
        </mxCell>
        <mxCell id="7YrPoQk4Cotq5ZZ0fGn4-178" value="&lt;font style=&quot;font-size: 10px;&quot;&gt;FloorNumber&lt;/font&gt;" style="ellipse;whiteSpace=wrap;html=1;" parent="1" vertex="1">
          <mxGeometry x="-7.5" y="95" width="80" height="40" as="geometry" />
        </mxCell>
        <mxCell id="7YrPoQk4Cotq5ZZ0fGn4-179" value="&lt;font style=&quot;font-size: 10px;&quot;&gt;NumOfBlocks,&lt;/font&gt;" style="ellipse;whiteSpace=wrap;html=1;" parent="1" vertex="1">
          <mxGeometry x="122.5" y="105" width="80" height="40" as="geometry" />
        </mxCell>
        <mxCell id="7YrPoQk4Cotq5ZZ0fGn4-180" value="&lt;font style=&quot;font-size: 10px;&quot;&gt;Manager_Id &lt;/font&gt;" style="ellipse;whiteSpace=wrap;html=1;" parent="1" vertex="1">
          <mxGeometry x="157.5" y="155" width="80" height="40" as="geometry" />
        </mxCell>
        <mxCell id="7YrPoQk4Cotq5ZZ0fGn4-182" value="" style="endArrow=none;dashed=1;html=1;rounded=0;" parent="1" edge="1">
          <mxGeometry width="50" height="50" relative="1" as="geometry">
            <mxPoint x="177.5" y="184.35000000000002" as="sourcePoint" />
            <mxPoint x="217.5" y="184.35000000000002" as="targetPoint" />
          </mxGeometry>
        </mxCell>
        <mxCell id="7YrPoQk4Cotq5ZZ0fGn4-184" value="" style="endArrow=none;html=1;rounded=0;" parent="1" edge="1">
          <mxGeometry width="50" height="50" relative="1" as="geometry">
            <mxPoint x="-162.5" y="155" as="sourcePoint" />
            <mxPoint x="-112.5" y="155" as="targetPoint" />
          </mxGeometry>
        </mxCell>
        <mxCell id="7YrPoQk4Cotq5ZZ0fGn4-185" value="" style="endArrow=none;html=1;rounded=0;exitX=0.936;exitY=-0.006;exitDx=0;exitDy=0;entryX=0.5;entryY=1;entryDx=0;entryDy=0;exitPerimeter=0;" parent="1" source="7YrPoQk4Cotq5ZZ0fGn4-24" target="7YrPoQk4Cotq5ZZ0fGn4-180" edge="1">
          <mxGeometry width="50" height="50" relative="1" as="geometry">
            <mxPoint x="122.5" y="376" as="sourcePoint" />
            <mxPoint x="162.5" y="296" as="targetPoint" />
          </mxGeometry>
        </mxCell>
        <mxCell id="7YrPoQk4Cotq5ZZ0fGn4-186" value="" style="endArrow=none;html=1;rounded=0;exitX=0.75;exitY=0;exitDx=0;exitDy=0;entryX=0.5;entryY=1;entryDx=0;entryDy=0;" parent="1" source="7YrPoQk4Cotq5ZZ0fGn4-24" target="7YrPoQk4Cotq5ZZ0fGn4-179" edge="1">
          <mxGeometry width="50" height="50" relative="1" as="geometry">
            <mxPoint x="42.5" y="255" as="sourcePoint" />
            <mxPoint x="82.5" y="175" as="targetPoint" />
          </mxGeometry>
        </mxCell>
        <mxCell id="7YrPoQk4Cotq5ZZ0fGn4-188" value="" style="endArrow=none;html=1;rounded=0;exitX=0.653;exitY=-0.049;exitDx=0;exitDy=0;exitPerimeter=0;entryX=0.5;entryY=1;entryDx=0;entryDy=0;" parent="1" source="7YrPoQk4Cotq5ZZ0fGn4-24" target="7YrPoQk4Cotq5ZZ0fGn4-189" edge="1">
          <mxGeometry width="50" height="50" relative="1" as="geometry">
            <mxPoint x="72.5" y="235" as="sourcePoint" />
            <mxPoint x="82.5" y="165" as="targetPoint" />
          </mxGeometry>
        </mxCell>
        <mxCell id="7YrPoQk4Cotq5ZZ0fGn4-189" value="&lt;font style=&quot;font-size: 10px;&quot;&gt;HiringDate&lt;/font&gt;" style="ellipse;whiteSpace=wrap;html=1;" parent="1" vertex="1">
          <mxGeometry x="52.5" y="135" width="80" height="40" as="geometry" />
        </mxCell>
        <mxCell id="7YrPoQk4Cotq5ZZ0fGn4-191" value="User&amp;nbsp;" style="rounded=0;whiteSpace=wrap;html=1;" parent="1" vertex="1">
          <mxGeometry x="-620" y="623" width="180" height="60" as="geometry" />
        </mxCell>
        <mxCell id="7YrPoQk4Cotq5ZZ0fGn4-192" value="" style="endArrow=none;html=1;rounded=0;exitX=0.042;exitY=-0.013;exitDx=0;exitDy=0;exitPerimeter=0;entryX=0.5;entryY=1;entryDx=0;entryDy=0;" parent="1" source="7YrPoQk4Cotq5ZZ0fGn4-191" target="7YrPoQk4Cotq5ZZ0fGn4-195" edge="1">
          <mxGeometry width="50" height="50" relative="1" as="geometry">
            <mxPoint x="-620" y="613" as="sourcePoint" />
            <mxPoint x="-680" y="553" as="targetPoint" />
          </mxGeometry>
        </mxCell>
        <mxCell id="7YrPoQk4Cotq5ZZ0fGn4-193" value="" style="endArrow=none;html=1;rounded=0;exitX=0.5;exitY=0;exitDx=0;exitDy=0;entryX=0.5;entryY=1;entryDx=0;entryDy=0;" parent="1" source="7YrPoQk4Cotq5ZZ0fGn4-191" target="7YrPoQk4Cotq5ZZ0fGn4-197" edge="1">
          <mxGeometry width="50" height="50" relative="1" as="geometry">
            <mxPoint x="-520" y="613" as="sourcePoint" />
            <mxPoint x="-410" y="553" as="targetPoint" />
          </mxGeometry>
        </mxCell>
        <mxCell id="7YrPoQk4Cotq5ZZ0fGn4-194" value="" style="endArrow=none;html=1;rounded=0;exitX=0.25;exitY=0;exitDx=0;exitDy=0;entryX=0.568;entryY=0.912;entryDx=0;entryDy=0;entryPerimeter=0;" parent="1" source="7YrPoQk4Cotq5ZZ0fGn4-191" target="7YrPoQk4Cotq5ZZ0fGn4-196" edge="1">
          <mxGeometry width="50" height="50" relative="1" as="geometry">
            <mxPoint x="-610" y="613" as="sourcePoint" />
            <mxPoint x="-630" y="543" as="targetPoint" />
          </mxGeometry>
        </mxCell>
        <mxCell id="7YrPoQk4Cotq5ZZ0fGn4-195" value="&lt;font style=&quot;font-size: 10px;&quot;&gt;SSN &lt;/font&gt;" style="ellipse;whiteSpace=wrap;html=1;" parent="1" vertex="1">
          <mxGeometry x="-740" y="503" width="80" height="40" as="geometry" />
        </mxCell>
        <mxCell id="7YrPoQk4Cotq5ZZ0fGn4-196" value="&lt;font style=&quot;font-size: 10px;&quot;&gt;Name&lt;/font&gt;" style="ellipse;whiteSpace=wrap;html=1;" parent="1" vertex="1">
          <mxGeometry x="-660" y="473" width="80" height="40" as="geometry" />
        </mxCell>
        <mxCell id="7YrPoQk4Cotq5ZZ0fGn4-197" value="&lt;font style=&quot;font-size: 10px;&quot;&gt;Email&lt;/font&gt;" style="ellipse;whiteSpace=wrap;html=1;" parent="1" vertex="1">
          <mxGeometry x="-570" y="448" width="80" height="40" as="geometry" />
        </mxCell>
        <mxCell id="7YrPoQk4Cotq5ZZ0fGn4-199" value="&lt;font style=&quot;font-size: 10px;&quot;&gt;Recorded_By  &lt;/font&gt;" style="ellipse;whiteSpace=wrap;html=1;" parent="1" vertex="1">
          <mxGeometry x="-410" y="503" width="80" height="40" as="geometry" />
        </mxCell>
        <mxCell id="7YrPoQk4Cotq5ZZ0fGn4-200" value="" style="endArrow=none;dashed=1;html=1;rounded=0;" parent="1" edge="1">
          <mxGeometry width="50" height="50" relative="1" as="geometry">
            <mxPoint x="-390" y="533" as="sourcePoint" />
            <mxPoint x="-350" y="533" as="targetPoint" />
          </mxGeometry>
        </mxCell>
        <mxCell id="7YrPoQk4Cotq5ZZ0fGn4-201" value="" style="endArrow=none;html=1;rounded=0;" parent="1" edge="1">
          <mxGeometry width="50" height="50" relative="1" as="geometry">
            <mxPoint x="-725" y="533" as="sourcePoint" />
            <mxPoint x="-675" y="533" as="targetPoint" />
          </mxGeometry>
        </mxCell>
        <mxCell id="7YrPoQk4Cotq5ZZ0fGn4-202" value="" style="endArrow=none;html=1;rounded=0;exitX=0.936;exitY=-0.006;exitDx=0;exitDy=0;entryX=0.5;entryY=1;entryDx=0;entryDy=0;exitPerimeter=0;" parent="1" source="7YrPoQk4Cotq5ZZ0fGn4-191" target="7YrPoQk4Cotq5ZZ0fGn4-199" edge="1">
          <mxGeometry width="50" height="50" relative="1" as="geometry">
            <mxPoint x="-440" y="754" as="sourcePoint" />
            <mxPoint x="-400" y="674" as="targetPoint" />
          </mxGeometry>
        </mxCell>
        <mxCell id="7YrPoQk4Cotq5ZZ0fGn4-204" value="" style="endArrow=none;html=1;rounded=0;exitX=0.653;exitY=-0.049;exitDx=0;exitDy=0;exitPerimeter=0;entryX=0.5;entryY=1;entryDx=0;entryDy=0;" parent="1" source="7YrPoQk4Cotq5ZZ0fGn4-191" target="7YrPoQk4Cotq5ZZ0fGn4-205" edge="1">
          <mxGeometry width="50" height="50" relative="1" as="geometry">
            <mxPoint x="-490" y="613" as="sourcePoint" />
            <mxPoint x="-480" y="543" as="targetPoint" />
          </mxGeometry>
        </mxCell>
        <mxCell id="7YrPoQk4Cotq5ZZ0fGn4-205" value="&lt;font style=&quot;font-size: 10px;&quot;&gt;Phone&lt;/font&gt;" style="ellipse;whiteSpace=wrap;html=1;" parent="1" vertex="1">
          <mxGeometry x="-490" y="463" width="80" height="40" as="geometry" />
        </mxCell>
        <mxCell id="7YrPoQk4Cotq5ZZ0fGn4-207" value="Book" style="rounded=0;whiteSpace=wrap;html=1;" parent="1" vertex="1">
          <mxGeometry x="-80" y="623" width="180" height="60" as="geometry" />
        </mxCell>
        <mxCell id="7YrPoQk4Cotq5ZZ0fGn4-208" value="" style="endArrow=none;html=1;rounded=0;exitX=0.042;exitY=-0.013;exitDx=0;exitDy=0;exitPerimeter=0;entryX=0.5;entryY=1;entryDx=0;entryDy=0;" parent="1" source="7YrPoQk4Cotq5ZZ0fGn4-207" target="7YrPoQk4Cotq5ZZ0fGn4-211" edge="1">
          <mxGeometry width="50" height="50" relative="1" as="geometry">
            <mxPoint x="-79.99999999999994" y="613" as="sourcePoint" />
            <mxPoint x="-140" y="553" as="targetPoint" />
          </mxGeometry>
        </mxCell>
        <mxCell id="7YrPoQk4Cotq5ZZ0fGn4-209" value="" style="endArrow=none;html=1;rounded=0;exitX=0.5;exitY=0;exitDx=0;exitDy=0;entryX=0.5;entryY=1;entryDx=0;entryDy=0;" parent="1" source="7YrPoQk4Cotq5ZZ0fGn4-207" target="7YrPoQk4Cotq5ZZ0fGn4-213" edge="1">
          <mxGeometry width="50" height="50" relative="1" as="geometry">
            <mxPoint x="20" y="613" as="sourcePoint" />
            <mxPoint x="130" y="553" as="targetPoint" />
          </mxGeometry>
        </mxCell>
        <mxCell id="7YrPoQk4Cotq5ZZ0fGn4-210" value="" style="endArrow=none;html=1;rounded=0;exitX=0.25;exitY=0;exitDx=0;exitDy=0;entryX=0.568;entryY=0.912;entryDx=0;entryDy=0;entryPerimeter=0;" parent="1" source="7YrPoQk4Cotq5ZZ0fGn4-207" target="7YrPoQk4Cotq5ZZ0fGn4-212" edge="1">
          <mxGeometry width="50" height="50" relative="1" as="geometry">
            <mxPoint x="-70" y="613" as="sourcePoint" />
            <mxPoint x="-90" y="543" as="targetPoint" />
          </mxGeometry>
        </mxCell>
        <mxCell id="7YrPoQk4Cotq5ZZ0fGn4-211" value="&lt;font style=&quot;font-size: 10px;&quot;&gt;Book_Id  &lt;/font&gt;" style="ellipse;whiteSpace=wrap;html=1;" parent="1" vertex="1">
          <mxGeometry x="-200" y="503" width="80" height="40" as="geometry" />
        </mxCell>
        <mxCell id="7YrPoQk4Cotq5ZZ0fGn4-212" value="&lt;font style=&quot;font-size: 10px;&quot;&gt;Title&lt;/font&gt;" style="ellipse;whiteSpace=wrap;html=1;" parent="1" vertex="1">
          <mxGeometry x="-110" y="463" width="80" height="40" as="geometry" />
        </mxCell>
        <mxCell id="7YrPoQk4Cotq5ZZ0fGn4-213" value="&lt;font style=&quot;font-size: 10px;&quot;&gt;Shelf_Code &lt;/font&gt;" style="ellipse;whiteSpace=wrap;html=1;" parent="1" vertex="1">
          <mxGeometry x="-20" y="448" width="80" height="40" as="geometry" />
        </mxCell>
        <mxCell id="7YrPoQk4Cotq5ZZ0fGn4-214" value="&lt;span style=&quot;font-size: 10px;&quot;&gt;Publisher_Id&lt;/span&gt;" style="ellipse;whiteSpace=wrap;html=1;" parent="1" vertex="1">
          <mxGeometry x="140" y="503" width="80" height="40" as="geometry" />
        </mxCell>
        <mxCell id="7YrPoQk4Cotq5ZZ0fGn4-215" value="" style="endArrow=none;dashed=1;html=1;rounded=0;" parent="1" edge="1">
          <mxGeometry width="50" height="50" relative="1" as="geometry">
            <mxPoint x="160" y="533" as="sourcePoint" />
            <mxPoint x="200" y="533" as="targetPoint" />
          </mxGeometry>
        </mxCell>
        <mxCell id="7YrPoQk4Cotq5ZZ0fGn4-216" value="" style="endArrow=none;html=1;rounded=0;" parent="1" edge="1">
          <mxGeometry width="50" height="50" relative="1" as="geometry">
            <mxPoint x="-182.5" y="533" as="sourcePoint" />
            <mxPoint x="-137.5" y="533" as="targetPoint" />
          </mxGeometry>
        </mxCell>
        <mxCell id="7YrPoQk4Cotq5ZZ0fGn4-217" value="" style="endArrow=none;html=1;rounded=0;exitX=0.936;exitY=-0.006;exitDx=0;exitDy=0;entryX=0.5;entryY=1;entryDx=0;entryDy=0;exitPerimeter=0;" parent="1" source="7YrPoQk4Cotq5ZZ0fGn4-207" target="7YrPoQk4Cotq5ZZ0fGn4-214" edge="1">
          <mxGeometry width="50" height="50" relative="1" as="geometry">
            <mxPoint x="100" y="754" as="sourcePoint" />
            <mxPoint x="140" y="674" as="targetPoint" />
          </mxGeometry>
        </mxCell>
        <mxCell id="7YrPoQk4Cotq5ZZ0fGn4-218" value="" style="endArrow=none;html=1;rounded=0;exitX=0.653;exitY=-0.049;exitDx=0;exitDy=0;exitPerimeter=0;entryX=0.5;entryY=1;entryDx=0;entryDy=0;" parent="1" source="7YrPoQk4Cotq5ZZ0fGn4-207" target="7YrPoQk4Cotq5ZZ0fGn4-219" edge="1">
          <mxGeometry width="50" height="50" relative="1" as="geometry">
            <mxPoint x="50" y="613" as="sourcePoint" />
            <mxPoint x="60" y="543" as="targetPoint" />
          </mxGeometry>
        </mxCell>
        <mxCell id="7YrPoQk4Cotq5ZZ0fGn4-219" value="&lt;font style=&quot;font-size: 10px;&quot;&gt;Category_Id &lt;/font&gt;" style="ellipse;whiteSpace=wrap;html=1;" parent="1" vertex="1">
          <mxGeometry x="70" y="463" width="80" height="40" as="geometry" />
        </mxCell>
        <mxCell id="7YrPoQk4Cotq5ZZ0fGn4-221" value="" style="endArrow=none;dashed=1;html=1;rounded=0;" parent="1" edge="1">
          <mxGeometry width="50" height="50" relative="1" as="geometry">
            <mxPoint y="478" as="sourcePoint" />
            <mxPoint x="40" y="478" as="targetPoint" />
          </mxGeometry>
        </mxCell>
        <mxCell id="7YrPoQk4Cotq5ZZ0fGn4-222" value="" style="endArrow=none;dashed=1;html=1;rounded=0;" parent="1" edge="1">
          <mxGeometry width="50" height="50" relative="1" as="geometry">
            <mxPoint x="90" y="492.78999999999996" as="sourcePoint" />
            <mxPoint x="130" y="492.78999999999996" as="targetPoint" />
          </mxGeometry>
        </mxCell>
        <mxCell id="7YrPoQk4Cotq5ZZ0fGn4-238" value="Author" style="rounded=0;whiteSpace=wrap;html=1;" parent="1" vertex="1">
          <mxGeometry x="210" y="875" width="180" height="60" as="geometry" />
        </mxCell>
        <mxCell id="7YrPoQk4Cotq5ZZ0fGn4-239" value="" style="endArrow=none;html=1;rounded=0;entryX=0.5;entryY=1;entryDx=0;entryDy=0;exitX=0.25;exitY=0;exitDx=0;exitDy=0;" parent="1" source="7YrPoQk4Cotq5ZZ0fGn4-238" target="7YrPoQk4Cotq5ZZ0fGn4-242" edge="1">
          <mxGeometry width="50" height="50" relative="1" as="geometry">
            <mxPoint x="260" y="840" as="sourcePoint" />
            <mxPoint x="140" y="805" as="targetPoint" />
          </mxGeometry>
        </mxCell>
        <mxCell id="7YrPoQk4Cotq5ZZ0fGn4-241" value="" style="endArrow=none;html=1;rounded=0;entryX=0.5;entryY=1;entryDx=0;entryDy=0;exitX=0.75;exitY=0;exitDx=0;exitDy=0;" parent="1" source="7YrPoQk4Cotq5ZZ0fGn4-238" target="7YrPoQk4Cotq5ZZ0fGn4-243" edge="1">
          <mxGeometry width="50" height="50" relative="1" as="geometry">
            <mxPoint x="320" y="870" as="sourcePoint" />
            <mxPoint x="359.98" y="776.96" as="targetPoint" />
          </mxGeometry>
        </mxCell>
        <mxCell id="7YrPoQk4Cotq5ZZ0fGn4-242" value="&lt;font style=&quot;font-size: 10px;&quot;&gt;Author_Id   &lt;/font&gt;" style="ellipse;whiteSpace=wrap;html=1;" parent="1" vertex="1">
          <mxGeometry x="180" y="750" width="80" height="40" as="geometry" />
        </mxCell>
        <mxCell id="7YrPoQk4Cotq5ZZ0fGn4-243" value="&lt;font style=&quot;font-size: 10px;&quot;&gt;Name&lt;/font&gt;" style="ellipse;whiteSpace=wrap;html=1;" parent="1" vertex="1">
          <mxGeometry x="310" y="750" width="80" height="40" as="geometry" />
        </mxCell>
        <mxCell id="7YrPoQk4Cotq5ZZ0fGn4-247" value="" style="endArrow=none;html=1;rounded=0;" parent="1" edge="1">
          <mxGeometry width="50" height="50" relative="1" as="geometry">
            <mxPoint x="197.5" y="780" as="sourcePoint" />
            <mxPoint x="242.5" y="780" as="targetPoint" />
          </mxGeometry>
        </mxCell>
        <mxCell id="7YrPoQk4Cotq5ZZ0fGn4-260" value="Publisher" style="rounded=0;whiteSpace=wrap;html=1;" parent="1" vertex="1">
          <mxGeometry x="-340" y="795" width="180" height="60" as="geometry" />
        </mxCell>
        <mxCell id="7YrPoQk4Cotq5ZZ0fGn4-261" value="" style="endArrow=none;html=1;rounded=0;entryX=0.5;entryY=1;entryDx=0;entryDy=0;exitX=0.25;exitY=0;exitDx=0;exitDy=0;" parent="1" source="7YrPoQk4Cotq5ZZ0fGn4-260" target="7YrPoQk4Cotq5ZZ0fGn4-263" edge="1">
          <mxGeometry width="50" height="50" relative="1" as="geometry">
            <mxPoint x="-280" y="760" as="sourcePoint" />
            <mxPoint x="-400" y="725" as="targetPoint" />
          </mxGeometry>
        </mxCell>
        <mxCell id="7YrPoQk4Cotq5ZZ0fGn4-262" value="" style="endArrow=none;html=1;rounded=0;entryX=0.5;entryY=1;entryDx=0;entryDy=0;exitX=0.75;exitY=0;exitDx=0;exitDy=0;" parent="1" source="7YrPoQk4Cotq5ZZ0fGn4-260" target="7YrPoQk4Cotq5ZZ0fGn4-264" edge="1">
          <mxGeometry width="50" height="50" relative="1" as="geometry">
            <mxPoint x="-220" y="790" as="sourcePoint" />
            <mxPoint x="-180.01999999999998" y="696.96" as="targetPoint" />
          </mxGeometry>
        </mxCell>
        <mxCell id="7YrPoQk4Cotq5ZZ0fGn4-263" value="&lt;font style=&quot;font-size: 10px;&quot;&gt;Publisher_Id    &lt;/font&gt;" style="ellipse;whiteSpace=wrap;html=1;" parent="1" vertex="1">
          <mxGeometry x="-360" y="670" width="80" height="40" as="geometry" />
        </mxCell>
        <mxCell id="7YrPoQk4Cotq5ZZ0fGn4-264" value="&lt;font style=&quot;font-size: 10px;&quot;&gt;Name&lt;/font&gt;" style="ellipse;whiteSpace=wrap;html=1;" parent="1" vertex="1">
          <mxGeometry x="-230" y="670" width="80" height="40" as="geometry" />
        </mxCell>
        <mxCell id="7YrPoQk4Cotq5ZZ0fGn4-265" value="" style="endArrow=none;html=1;rounded=0;" parent="1" edge="1">
          <mxGeometry width="50" height="50" relative="1" as="geometry">
            <mxPoint x="-342.5" y="700" as="sourcePoint" />
            <mxPoint x="-297.5" y="700" as="targetPoint" />
          </mxGeometry>
        </mxCell>
        <mxCell id="7YrPoQk4Cotq5ZZ0fGn4-266" value="Category" style="rounded=0;whiteSpace=wrap;html=1;" parent="1" vertex="1">
          <mxGeometry x="350" y="470.5" width="180" height="60" as="geometry" />
        </mxCell>
        <mxCell id="7YrPoQk4Cotq5ZZ0fGn4-267" value="" style="endArrow=none;html=1;rounded=0;entryX=0.5;entryY=1;entryDx=0;entryDy=0;exitX=0.25;exitY=0;exitDx=0;exitDy=0;" parent="1" source="7YrPoQk4Cotq5ZZ0fGn4-266" target="7YrPoQk4Cotq5ZZ0fGn4-269" edge="1">
          <mxGeometry width="50" height="50" relative="1" as="geometry">
            <mxPoint x="410" y="435.5" as="sourcePoint" />
            <mxPoint x="290" y="400.5" as="targetPoint" />
          </mxGeometry>
        </mxCell>
        <mxCell id="7YrPoQk4Cotq5ZZ0fGn4-268" value="" style="endArrow=none;html=1;rounded=0;entryX=0.5;entryY=1;entryDx=0;entryDy=0;exitX=0.75;exitY=0;exitDx=0;exitDy=0;" parent="1" source="7YrPoQk4Cotq5ZZ0fGn4-266" target="7YrPoQk4Cotq5ZZ0fGn4-270" edge="1">
          <mxGeometry width="50" height="50" relative="1" as="geometry">
            <mxPoint x="470" y="465.5" as="sourcePoint" />
            <mxPoint x="509.98" y="372.46000000000004" as="targetPoint" />
          </mxGeometry>
        </mxCell>
        <mxCell id="7YrPoQk4Cotq5ZZ0fGn4-269" value="&lt;font style=&quot;font-size: 10px;&quot;&gt;Category_Id   &lt;/font&gt;" style="ellipse;whiteSpace=wrap;html=1;" parent="1" vertex="1">
          <mxGeometry x="330" y="345.5" width="80" height="40" as="geometry" />
        </mxCell>
        <mxCell id="7YrPoQk4Cotq5ZZ0fGn4-270" value="&lt;font style=&quot;font-size: 10px;&quot;&gt;Cat_Name&lt;/font&gt;" style="ellipse;whiteSpace=wrap;html=1;" parent="1" vertex="1">
          <mxGeometry x="460" y="345.5" width="80" height="40" as="geometry" />
        </mxCell>
        <mxCell id="7YrPoQk4Cotq5ZZ0fGn4-271" value="" style="endArrow=none;html=1;rounded=0;" parent="1" edge="1">
          <mxGeometry width="50" height="50" relative="1" as="geometry">
            <mxPoint x="347.5" y="375.5" as="sourcePoint" />
            <mxPoint x="392.5" y="375.5" as="targetPoint" />
          </mxGeometry>
        </mxCell>
        <mxCell id="7YrPoQk4Cotq5ZZ0fGn4-272" value="&lt;strong&gt;Borrow_Record&lt;/strong&gt;" style="shape=ext;margin=3;double=1;whiteSpace=wrap;html=1;align=center;" parent="1" vertex="1">
          <mxGeometry x="-752.5" y="977.5" width="180" height="60" as="geometry" />
        </mxCell>
        <mxCell id="7YrPoQk4Cotq5ZZ0fGn4-303" value="" style="endArrow=none;html=1;rounded=0;exitX=0.103;exitY=0.017;exitDx=0;exitDy=0;exitPerimeter=0;entryX=0.5;entryY=1;entryDx=0;entryDy=0;" parent="1" source="7YrPoQk4Cotq5ZZ0fGn4-272" target="7YrPoQk4Cotq5ZZ0fGn4-306" edge="1">
          <mxGeometry width="50" height="50" relative="1" as="geometry">
            <mxPoint x="-749.94" y="956.7199999999998" as="sourcePoint" />
            <mxPoint x="-817.5" y="887.5" as="targetPoint" />
          </mxGeometry>
        </mxCell>
        <mxCell id="7YrPoQk4Cotq5ZZ0fGn4-304" value="" style="endArrow=none;html=1;rounded=0;exitX=0.484;exitY=0.013;exitDx=0;exitDy=0;entryX=0.5;entryY=1;entryDx=0;entryDy=0;exitPerimeter=0;" parent="1" source="7YrPoQk4Cotq5ZZ0fGn4-272" target="7YrPoQk4Cotq5ZZ0fGn4-308" edge="1">
          <mxGeometry width="50" height="50" relative="1" as="geometry">
            <mxPoint x="-667.5" y="957.5" as="sourcePoint" />
            <mxPoint x="-547.5" y="887.5" as="targetPoint" />
          </mxGeometry>
        </mxCell>
        <mxCell id="7YrPoQk4Cotq5ZZ0fGn4-305" value="" style="endArrow=none;html=1;rounded=0;entryX=0.568;entryY=0.912;entryDx=0;entryDy=0;entryPerimeter=0;exitX=0.27;exitY=0.017;exitDx=0;exitDy=0;exitPerimeter=0;" parent="1" source="7YrPoQk4Cotq5ZZ0fGn4-272" target="7YrPoQk4Cotq5ZZ0fGn4-307" edge="1">
          <mxGeometry width="50" height="50" relative="1" as="geometry">
            <mxPoint x="-707.5" y="952.5" as="sourcePoint" />
            <mxPoint x="-767.5" y="877.5" as="targetPoint" />
          </mxGeometry>
        </mxCell>
        <mxCell id="7YrPoQk4Cotq5ZZ0fGn4-306" value="&lt;font style=&quot;font-size: 10px;&quot;&gt;Borrow_Id   &lt;/font&gt;" style="ellipse;whiteSpace=wrap;html=1;" parent="1" vertex="1">
          <mxGeometry x="-897.5" y="872.5" width="80" height="40" as="geometry" />
        </mxCell>
        <mxCell id="7YrPoQk4Cotq5ZZ0fGn4-307" value="&lt;font style=&quot;font-size: 10px;&quot;&gt;Employee_Id&lt;/font&gt;" style="ellipse;whiteSpace=wrap;html=1;" parent="1" vertex="1">
          <mxGeometry x="-832.5" y="837.5" width="80" height="40" as="geometry" />
        </mxCell>
        <mxCell id="7YrPoQk4Cotq5ZZ0fGn4-308" value="&lt;font style=&quot;font-size: 10px;&quot;&gt;User_SSN  &lt;/font&gt;" style="ellipse;whiteSpace=wrap;html=1;" parent="1" vertex="1">
          <mxGeometry x="-747.5" y="817.5" width="80" height="40" as="geometry" />
        </mxCell>
        <mxCell id="7YrPoQk4Cotq5ZZ0fGn4-310" value="" style="endArrow=none;html=1;rounded=0;" parent="1" edge="1">
          <mxGeometry width="50" height="50" relative="1" as="geometry">
            <mxPoint x="-880" y="902.5" as="sourcePoint" />
            <mxPoint x="-835" y="902.5" as="targetPoint" />
          </mxGeometry>
        </mxCell>
        <mxCell id="7YrPoQk4Cotq5ZZ0fGn4-311" value="" style="endArrow=none;html=1;rounded=0;entryX=0.52;entryY=0.895;entryDx=0;entryDy=0;entryPerimeter=0;exitX=0.75;exitY=0;exitDx=0;exitDy=0;" parent="1" source="7YrPoQk4Cotq5ZZ0fGn4-272" target="7YrPoQk4Cotq5ZZ0fGn4-317" edge="1">
          <mxGeometry width="50" height="50" relative="1" as="geometry">
            <mxPoint x="-607.5" y="972.5" as="sourcePoint" />
            <mxPoint x="-497.5" y="877.5" as="targetPoint" />
          </mxGeometry>
        </mxCell>
        <mxCell id="7YrPoQk4Cotq5ZZ0fGn4-312" value="" style="endArrow=none;html=1;rounded=0;exitX=0.637;exitY=0.01;exitDx=0;exitDy=0;exitPerimeter=0;entryX=0.5;entryY=1;entryDx=0;entryDy=0;" parent="1" source="7YrPoQk4Cotq5ZZ0fGn4-272" target="7YrPoQk4Cotq5ZZ0fGn4-313" edge="1">
          <mxGeometry width="50" height="50" relative="1" as="geometry">
            <mxPoint x="-639.96" y="954.5600000000002" as="sourcePoint" />
            <mxPoint x="-617.5" y="877.5" as="targetPoint" />
          </mxGeometry>
        </mxCell>
        <mxCell id="7YrPoQk4Cotq5ZZ0fGn4-313" value="&lt;font style=&quot;font-size: 10px;&quot;&gt;Book_Id  &lt;/font&gt;" style="ellipse;whiteSpace=wrap;html=1;" parent="1" vertex="1">
          <mxGeometry x="-687.5" y="772.5" width="80" height="40" as="geometry" />
        </mxCell>
        <mxCell id="7YrPoQk4Cotq5ZZ0fGn4-314" value="" style="endArrow=none;dashed=1;html=1;rounded=0;" parent="1" edge="1">
          <mxGeometry width="50" height="50" relative="1" as="geometry">
            <mxPoint x="-727.5" y="847.5" as="sourcePoint" />
            <mxPoint x="-687.5" y="847.5" as="targetPoint" />
          </mxGeometry>
        </mxCell>
        <mxCell id="7YrPoQk4Cotq5ZZ0fGn4-315" value="" style="endArrow=none;dashed=1;html=1;rounded=0;" parent="1" edge="1">
          <mxGeometry width="50" height="50" relative="1" as="geometry">
            <mxPoint x="-667.5" y="802.29" as="sourcePoint" />
            <mxPoint x="-627.5" y="802.29" as="targetPoint" />
          </mxGeometry>
        </mxCell>
        <mxCell id="7YrPoQk4Cotq5ZZ0fGn4-316" value="" style="endArrow=none;dashed=1;html=1;rounded=0;" parent="1" edge="1">
          <mxGeometry width="50" height="50" relative="1" as="geometry">
            <mxPoint x="-812.5" y="867.33" as="sourcePoint" />
            <mxPoint x="-772.5" y="867.33" as="targetPoint" />
          </mxGeometry>
        </mxCell>
        <mxCell id="7YrPoQk4Cotq5ZZ0fGn4-317" value="&lt;font style=&quot;font-size: 10px;&quot;&gt;Date_Borrowed  &lt;/font&gt;" style="ellipse;whiteSpace=wrap;html=1;" parent="1" vertex="1">
          <mxGeometry x="-600" y="852.5" width="80" height="40" as="geometry" />
        </mxCell>
        <mxCell id="7YrPoQk4Cotq5ZZ0fGn4-318" value="&lt;font style=&quot;font-size: 10px;&quot;&gt;Due_Date  &lt;/font&gt;" style="ellipse;whiteSpace=wrap;html=1;" parent="1" vertex="1">
          <mxGeometry x="-505" y="837.5" width="80" height="40" as="geometry" />
        </mxCell>
        <mxCell id="7YrPoQk4Cotq5ZZ0fGn4-319" value="&lt;font style=&quot;font-size: 10px;&quot;&gt;Amount  &lt;/font&gt;" style="ellipse;whiteSpace=wrap;html=1;" parent="1" vertex="1">
          <mxGeometry x="-480" y="892.5" width="80" height="40" as="geometry" />
        </mxCell>
        <mxCell id="7YrPoQk4Cotq5ZZ0fGn4-320" value="" style="endArrow=none;html=1;rounded=0;entryX=0.4;entryY=0.99;entryDx=0;entryDy=0;exitX=0.997;exitY=0.163;exitDx=0;exitDy=0;exitPerimeter=0;entryPerimeter=0;" parent="1" source="7YrPoQk4Cotq5ZZ0fGn4-272" target="7YrPoQk4Cotq5ZZ0fGn4-318" edge="1">
          <mxGeometry width="50" height="50" relative="1" as="geometry">
            <mxPoint x="-553.5" y="992.5" as="sourcePoint" />
            <mxPoint x="-457.5" y="892.5" as="targetPoint" />
          </mxGeometry>
        </mxCell>
        <mxCell id="7YrPoQk4Cotq5ZZ0fGn4-321" value="" style="endArrow=none;html=1;rounded=0;exitX=1;exitY=0.25;exitDx=0;exitDy=0;entryX=0.5;entryY=1;entryDx=0;entryDy=0;" parent="1" source="7YrPoQk4Cotq5ZZ0fGn4-272" target="7YrPoQk4Cotq5ZZ0fGn4-319" edge="1">
          <mxGeometry width="50" height="50" relative="1" as="geometry">
            <mxPoint x="-572.5" y="1032.5" as="sourcePoint" />
            <mxPoint x="-477.5" y="932.5" as="targetPoint" />
          </mxGeometry>
        </mxCell>
        <mxCell id="7YrPoQk4Cotq5ZZ0fGn4-322" value="&lt;font style=&quot;font-size: 9px;&quot;&gt;Supervises&lt;/font&gt;" style="rhombus;whiteSpace=wrap;html=1;fillColor=#6a00ff;fontColor=#ffffff;strokeColor=#3700CC;" parent="1" vertex="1">
          <mxGeometry x="-420" y="300" width="70" height="60" as="geometry" />
        </mxCell>
        <mxCell id="7YrPoQk4Cotq5ZZ0fGn4-323" value="" style="endArrow=none;html=1;rounded=0;entryX=0.5;entryY=0;entryDx=0;entryDy=0;" parent="1" target="7YrPoQk4Cotq5ZZ0fGn4-322" edge="1">
          <mxGeometry width="50" height="50" relative="1" as="geometry">
            <mxPoint x="-470" y="309.66" as="sourcePoint" />
            <mxPoint x="-420" y="309.66" as="targetPoint" />
          </mxGeometry>
        </mxCell>
        <mxCell id="7YrPoQk4Cotq5ZZ0fGn4-325" value="&lt;font style=&quot;font-size: 10px;&quot;&gt;1&lt;/font&gt;" style="text;html=1;align=center;verticalAlign=middle;resizable=0;points=[];autosize=1;strokeColor=none;fillColor=none;" parent="1" vertex="1">
          <mxGeometry x="-470" y="285" width="30" height="30" as="geometry" />
        </mxCell>
        <mxCell id="7YrPoQk4Cotq5ZZ0fGn4-326" value="&lt;font style=&quot;font-size: 10px;&quot;&gt;M&lt;/font&gt;" style="text;html=1;align=center;verticalAlign=middle;resizable=0;points=[];autosize=1;strokeColor=none;fillColor=none;rotation=0;" parent="1" vertex="1">
          <mxGeometry x="-470" y="330" width="30" height="30" as="geometry" />
        </mxCell>
        <mxCell id="7YrPoQk4Cotq5ZZ0fGn4-330" value="&lt;font style=&quot;font-size: 10px;&quot;&gt;1&lt;/font&gt;" style="text;html=1;align=center;verticalAlign=middle;resizable=0;points=[];autosize=1;strokeColor=none;fillColor=none;" parent="1" vertex="1">
          <mxGeometry x="-87.5" y="260" width="30" height="30" as="geometry" />
        </mxCell>
        <mxCell id="7YrPoQk4Cotq5ZZ0fGn4-331" value="&lt;font style=&quot;font-size: 10px;&quot;&gt;1&lt;/font&gt;" style="text;html=1;align=center;verticalAlign=middle;resizable=0;points=[];autosize=1;strokeColor=none;fillColor=none;" parent="1" vertex="1">
          <mxGeometry x="-570" y="330" width="30" height="30" as="geometry" />
        </mxCell>
        <mxCell id="7YrPoQk4Cotq5ZZ0fGn4-333" value="&lt;font size=&quot;1&quot;&gt;Manage&lt;/font&gt;" style="rhombus;whiteSpace=wrap;html=1;fillColor=#6a00ff;fontColor=#ffffff;strokeColor=#3700CC;" parent="1" vertex="1">
          <mxGeometry x="-247.5" y="300" width="70" height="60" as="geometry" />
        </mxCell>
        <mxCell id="7YrPoQk4Cotq5ZZ0fGn4-336" value="" style="endArrow=none;html=1;rounded=0;exitX=0.5;exitY=1;exitDx=0;exitDy=0;entryX=0;entryY=0.5;entryDx=0;entryDy=0;" parent="1" source="7YrPoQk4Cotq5ZZ0fGn4-1" target="7YrPoQk4Cotq5ZZ0fGn4-333" edge="1">
          <mxGeometry width="50" height="50" relative="1" as="geometry">
            <mxPoint x="-517.5" y="380" as="sourcePoint" />
            <mxPoint x="-270" y="320" as="targetPoint" />
            <Array as="points">
              <mxPoint x="-560" y="370" />
              <mxPoint x="-280" y="370" />
              <mxPoint x="-280" y="330" />
            </Array>
          </mxGeometry>
        </mxCell>
        <mxCell id="7YrPoQk4Cotq5ZZ0fGn4-338" value="" style="endArrow=none;html=1;rounded=0;exitX=1;exitY=0.5;exitDx=0;exitDy=0;entryX=0;entryY=0.75;entryDx=0;entryDy=0;" parent="1" source="7YrPoQk4Cotq5ZZ0fGn4-333" target="7YrPoQk4Cotq5ZZ0fGn4-24" edge="1">
          <mxGeometry width="50" height="50" relative="1" as="geometry">
            <mxPoint x="-157.5" y="329.43" as="sourcePoint" />
            <mxPoint x="-97.5" y="329.43" as="targetPoint" />
            <Array as="points">
              <mxPoint x="-130" y="330" />
              <mxPoint x="-130" y="290" />
            </Array>
          </mxGeometry>
        </mxCell>
        <mxCell id="7YrPoQk4Cotq5ZZ0fGn4-340" value="&lt;font size=&quot;1&quot;&gt;Works_On&lt;/font&gt;" style="rhombus;whiteSpace=wrap;html=1;fillColor=#6a00ff;fontColor=#ffffff;strokeColor=#3700CC;" parent="1" vertex="1">
          <mxGeometry x="-247.5" y="395" width="70" height="60" as="geometry" />
        </mxCell>
        <mxCell id="7YrPoQk4Cotq5ZZ0fGn4-341" value="" style="endArrow=none;html=1;rounded=0;exitX=1;exitY=0.5;exitDx=0;exitDy=0;entryX=0.098;entryY=0.998;entryDx=0;entryDy=0;entryPerimeter=0;" parent="1" source="7YrPoQk4Cotq5ZZ0fGn4-340" target="7YrPoQk4Cotq5ZZ0fGn4-24" edge="1">
          <mxGeometry width="50" height="50" relative="1" as="geometry">
            <mxPoint x="-167" y="400" as="sourcePoint" />
            <mxPoint x="-40" y="340" as="targetPoint" />
            <Array as="points">
              <mxPoint x="-120" y="425" />
              <mxPoint x="-120" y="360" />
              <mxPoint x="-80" y="360" />
              <mxPoint x="-40" y="360" />
              <mxPoint x="-40" y="340" />
            </Array>
          </mxGeometry>
        </mxCell>
        <mxCell id="7YrPoQk4Cotq5ZZ0fGn4-343" value="&lt;font style=&quot;font-size: 10px;&quot;&gt;1&lt;/font&gt;" style="text;html=1;align=center;verticalAlign=middle;resizable=0;points=[];autosize=1;strokeColor=none;fillColor=none;" parent="1" vertex="1">
          <mxGeometry x="-72.5" y="305" width="30" height="30" as="geometry" />
        </mxCell>
        <mxCell id="7YrPoQk4Cotq5ZZ0fGn4-344" value="&lt;font style=&quot;font-size: 10px;&quot;&gt;M&lt;/font&gt;" style="text;html=1;align=center;verticalAlign=middle;resizable=0;points=[];autosize=1;strokeColor=none;fillColor=none;rotation=0;" parent="1" vertex="1">
          <mxGeometry x="-605" y="330" width="30" height="30" as="geometry" />
        </mxCell>
        <mxCell id="7YrPoQk4Cotq5ZZ0fGn4-346" value="" style="endArrow=none;html=1;rounded=0;entryX=0.11;entryY=0.987;entryDx=0;entryDy=0;entryPerimeter=0;exitX=0.5;exitY=0;exitDx=0;exitDy=0;" parent="1" source="7YrPoQk4Cotq5ZZ0fGn4-347" target="7YrPoQk4Cotq5ZZ0fGn4-1" edge="1">
          <mxGeometry width="50" height="50" relative="1" as="geometry">
            <mxPoint x="-780" y="600" as="sourcePoint" />
            <mxPoint x="-670" y="340" as="targetPoint" />
            <Array as="points">
              <mxPoint x="-780" y="420" />
              <mxPoint x="-780" y="410" />
              <mxPoint x="-780" y="380" />
              <mxPoint x="-680" y="380" />
              <mxPoint x="-630" y="380" />
            </Array>
          </mxGeometry>
        </mxCell>
        <mxCell id="7YrPoQk4Cotq5ZZ0fGn4-347" value="&lt;font size=&quot;1&quot;&gt;Records&lt;/font&gt;" style="rhombus;whiteSpace=wrap;html=1;fillColor=#6a00ff;fontColor=#ffffff;strokeColor=#3700CC;" parent="1" vertex="1">
          <mxGeometry x="-815" y="623" width="70" height="60" as="geometry" />
        </mxCell>
        <mxCell id="7YrPoQk4Cotq5ZZ0fGn4-349" value="&lt;font style=&quot;font-size: 10px;&quot;&gt;1&lt;/font&gt;" style="text;html=1;align=center;verticalAlign=middle;resizable=0;points=[];autosize=1;strokeColor=none;fillColor=none;" parent="1" vertex="1">
          <mxGeometry x="-660" y="330" width="30" height="30" as="geometry" />
        </mxCell>
        <mxCell id="7YrPoQk4Cotq5ZZ0fGn4-350" value="&lt;font style=&quot;font-size: 10px;&quot;&gt;M&lt;/font&gt;" style="text;html=1;align=center;verticalAlign=middle;resizable=0;points=[];autosize=1;strokeColor=none;fillColor=none;rotation=0;" parent="1" vertex="1">
          <mxGeometry x="-650" y="623" width="30" height="30" as="geometry" />
        </mxCell>
        <mxCell id="7YrPoQk4Cotq5ZZ0fGn4-351" value="" style="endArrow=none;html=1;rounded=0;entryX=0.383;entryY=1.017;entryDx=0;entryDy=0;entryPerimeter=0;exitX=1;exitY=0.5;exitDx=0;exitDy=0;" parent="1" source="7YrPoQk4Cotq5ZZ0fGn4-352" target="7YrPoQk4Cotq5ZZ0fGn4-207" edge="1">
          <mxGeometry width="50" height="50" relative="1" as="geometry">
            <mxPoint x="-50" y="825" as="sourcePoint" />
            <mxPoint x="-37.49999999999993" y="690" as="targetPoint" />
            <Array as="points">
              <mxPoint x="-11" y="825" />
            </Array>
          </mxGeometry>
        </mxCell>
        <mxCell id="7YrPoQk4Cotq5ZZ0fGn4-352" value="&lt;font size=&quot;1&quot;&gt;Has&lt;/font&gt;" style="rhombus;whiteSpace=wrap;html=1;fillColor=#6a00ff;fontColor=#ffffff;strokeColor=#3700CC;" parent="1" vertex="1">
          <mxGeometry x="-127.5" y="795" width="70" height="60" as="geometry" />
        </mxCell>
        <mxCell id="7YrPoQk4Cotq5ZZ0fGn4-353" value="" style="endArrow=none;html=1;rounded=0;entryX=0.024;entryY=0.497;entryDx=0;entryDy=0;entryPerimeter=0;exitX=1;exitY=0.5;exitDx=0;exitDy=0;" parent="1" source="7YrPoQk4Cotq5ZZ0fGn4-260" target="7YrPoQk4Cotq5ZZ0fGn4-352" edge="1">
          <mxGeometry width="50" height="50" relative="1" as="geometry">
            <mxPoint x="-150" y="824.9" as="sourcePoint" />
            <mxPoint x="-130" y="824.9" as="targetPoint" />
          </mxGeometry>
        </mxCell>
        <mxCell id="7YrPoQk4Cotq5ZZ0fGn4-354" value="&lt;font style=&quot;font-size: 10px;&quot;&gt;1&lt;/font&gt;" style="text;html=1;align=center;verticalAlign=middle;resizable=0;points=[];autosize=1;strokeColor=none;fillColor=none;" parent="1" vertex="1">
          <mxGeometry x="-37.5" y="680" width="30" height="30" as="geometry" />
        </mxCell>
        <mxCell id="7YrPoQk4Cotq5ZZ0fGn4-355" value="&lt;font style=&quot;font-size: 10px;&quot;&gt;M&lt;/font&gt;" style="text;html=1;align=center;verticalAlign=middle;resizable=0;points=[];autosize=1;strokeColor=none;fillColor=none;rotation=0;" parent="1" vertex="1">
          <mxGeometry x="-160" y="800" width="30" height="30" as="geometry" />
        </mxCell>
        <mxCell id="7YrPoQk4Cotq5ZZ0fGn4-356" value="" style="endArrow=none;html=1;rounded=0;entryX=0.782;entryY=1.007;entryDx=0;entryDy=0;exitX=0;exitY=0.5;exitDx=0;exitDy=0;entryPerimeter=0;" parent="1" source="7YrPoQk4Cotq5ZZ0fGn4-357" target="7YrPoQk4Cotq5ZZ0fGn4-207" edge="1">
          <mxGeometry width="50" height="50" relative="1" as="geometry">
            <mxPoint x="80" y="830" as="sourcePoint" />
            <mxPoint x="60" y="714" as="targetPoint" />
            <Array as="points">
              <mxPoint x="60" y="750" />
            </Array>
          </mxGeometry>
        </mxCell>
        <mxCell id="7YrPoQk4Cotq5ZZ0fGn4-357" value="&lt;font size=&quot;1&quot;&gt;IsWritten&lt;/font&gt;" style="rhombus;whiteSpace=wrap;html=1;fillColor=#6a00ff;fontColor=#ffffff;strokeColor=#3700CC;" parent="1" vertex="1">
          <mxGeometry x="75" y="720" width="70" height="60" as="geometry" />
        </mxCell>
        <mxCell id="7YrPoQk4Cotq5ZZ0fGn4-358" value="" style="endArrow=none;html=1;rounded=0;entryX=0;entryY=0.582;entryDx=0;entryDy=0;entryPerimeter=0;exitX=1;exitY=0.5;exitDx=0;exitDy=0;" parent="1" source="7YrPoQk4Cotq5ZZ0fGn4-357" target="7YrPoQk4Cotq5ZZ0fGn4-238" edge="1">
          <mxGeometry width="50" height="50" relative="1" as="geometry">
            <mxPoint x="160" y="830" as="sourcePoint" />
            <mxPoint x="175" y="830" as="targetPoint" />
            <Array as="points">
              <mxPoint x="160" y="750" />
              <mxPoint x="160" y="910" />
            </Array>
          </mxGeometry>
        </mxCell>
        <mxCell id="7YrPoQk4Cotq5ZZ0fGn4-360" value="&lt;font size=&quot;1&quot;&gt;Belongs_To&lt;/font&gt;" style="rhombus;whiteSpace=wrap;html=1;fillColor=#6a00ff;fontColor=#ffffff;strokeColor=#3700CC;" parent="1" vertex="1">
          <mxGeometry x="220" y="558" width="70" height="60" as="geometry" />
        </mxCell>
        <mxCell id="7YrPoQk4Cotq5ZZ0fGn4-361" value="" style="endArrow=none;html=1;rounded=0;entryX=0.5;entryY=1;entryDx=0;entryDy=0;exitX=1;exitY=0.5;exitDx=0;exitDy=0;" parent="1" source="7YrPoQk4Cotq5ZZ0fGn4-360" target="7YrPoQk4Cotq5ZZ0fGn4-266" edge="1">
          <mxGeometry width="50" height="50" relative="1" as="geometry">
            <mxPoint x="400" y="620" as="sourcePoint" />
            <mxPoint x="450" y="570" as="targetPoint" />
            <Array as="points">
              <mxPoint x="440" y="588" />
            </Array>
          </mxGeometry>
        </mxCell>
        <mxCell id="7YrPoQk4Cotq5ZZ0fGn4-362" value="" style="endArrow=none;html=1;rounded=0;entryX=0;entryY=0.5;entryDx=0;entryDy=0;exitX=1;exitY=0.5;exitDx=0;exitDy=0;" parent="1" source="7YrPoQk4Cotq5ZZ0fGn4-207" target="7YrPoQk4Cotq5ZZ0fGn4-360" edge="1">
          <mxGeometry width="50" height="50" relative="1" as="geometry">
            <mxPoint x="140" y="650" as="sourcePoint" />
            <mxPoint x="200" y="600" as="targetPoint" />
            <Array as="points">
              <mxPoint x="180" y="653" />
              <mxPoint x="180" y="588" />
            </Array>
          </mxGeometry>
        </mxCell>
        <mxCell id="7YrPoQk4Cotq5ZZ0fGn4-363" value="&lt;font style=&quot;font-size: 10px;&quot;&gt;N&lt;/font&gt;" style="text;html=1;align=center;verticalAlign=middle;resizable=0;points=[];autosize=1;strokeColor=none;fillColor=none;rotation=0;" parent="1" vertex="1">
          <mxGeometry x="52.5" y="675" width="30" height="30" as="geometry" />
        </mxCell>
        <mxCell id="7YrPoQk4Cotq5ZZ0fGn4-364" value="&lt;font style=&quot;font-size: 10px;&quot;&gt;M&lt;/font&gt;" style="text;html=1;align=center;verticalAlign=middle;resizable=0;points=[];autosize=1;strokeColor=none;fillColor=none;rotation=0;" parent="1" vertex="1">
          <mxGeometry x="180" y="880" width="30" height="30" as="geometry" />
        </mxCell>
        <mxCell id="7YrPoQk4Cotq5ZZ0fGn4-373" value="&lt;font style=&quot;font-size: 10px;&quot;&gt;1&lt;/font&gt;" style="text;html=1;align=center;verticalAlign=middle;resizable=0;points=[];autosize=1;strokeColor=none;fillColor=none;" parent="1" vertex="1">
          <mxGeometry x="410" y="523" width="30" height="30" as="geometry" />
        </mxCell>
        <mxCell id="7YrPoQk4Cotq5ZZ0fGn4-374" value="&lt;font style=&quot;font-size: 10px;&quot;&gt;M&lt;/font&gt;" style="text;html=1;align=center;verticalAlign=middle;resizable=0;points=[];autosize=1;strokeColor=none;fillColor=none;rotation=0;" parent="1" vertex="1">
          <mxGeometry x="92.5" y="623" width="30" height="30" as="geometry" />
        </mxCell>
        <mxCell id="7YrPoQk4Cotq5ZZ0fGn4-375" value="Shelf" style="rounded=0;whiteSpace=wrap;html=1;" parent="1" vertex="1">
          <mxGeometry x="560" y="618" width="180" height="60" as="geometry" />
        </mxCell>
        <mxCell id="7YrPoQk4Cotq5ZZ0fGn4-376" value="" style="endArrow=none;html=1;rounded=0;entryX=0.5;entryY=1;entryDx=0;entryDy=0;exitX=0.25;exitY=0;exitDx=0;exitDy=0;" parent="1" source="7YrPoQk4Cotq5ZZ0fGn4-375" target="7YrPoQk4Cotq5ZZ0fGn4-378" edge="1">
          <mxGeometry width="50" height="50" relative="1" as="geometry">
            <mxPoint x="580" y="588" as="sourcePoint" />
            <mxPoint x="460" y="553" as="targetPoint" />
          </mxGeometry>
        </mxCell>
        <mxCell id="7YrPoQk4Cotq5ZZ0fGn4-377" value="" style="endArrow=none;html=1;rounded=0;entryX=0.5;entryY=1;entryDx=0;entryDy=0;exitX=0.75;exitY=0;exitDx=0;exitDy=0;" parent="1" source="7YrPoQk4Cotq5ZZ0fGn4-375" target="7YrPoQk4Cotq5ZZ0fGn4-379" edge="1">
          <mxGeometry width="50" height="50" relative="1" as="geometry">
            <mxPoint x="640" y="618" as="sourcePoint" />
            <mxPoint x="679.98" y="524.96" as="targetPoint" />
          </mxGeometry>
        </mxCell>
        <mxCell id="7YrPoQk4Cotq5ZZ0fGn4-378" value="&lt;font style=&quot;font-size: 10px;&quot;&gt;Shelf_Code&lt;/font&gt;" style="ellipse;whiteSpace=wrap;html=1;" parent="1" vertex="1">
          <mxGeometry x="540" y="538" width="80" height="40" as="geometry" />
        </mxCell>
        <mxCell id="7YrPoQk4Cotq5ZZ0fGn4-379" value="&lt;font style=&quot;font-size: 10px;&quot;&gt;Floor_Id&lt;/font&gt;" style="ellipse;whiteSpace=wrap;html=1;" parent="1" vertex="1">
          <mxGeometry x="650" y="498" width="80" height="40" as="geometry" />
        </mxCell>
        <mxCell id="7YrPoQk4Cotq5ZZ0fGn4-380" value="" style="endArrow=none;html=1;rounded=0;" parent="1" edge="1">
          <mxGeometry width="50" height="50" relative="1" as="geometry">
            <mxPoint x="557.5" y="570" as="sourcePoint" />
            <mxPoint x="602.5" y="570" as="targetPoint" />
          </mxGeometry>
        </mxCell>
        <mxCell id="7YrPoQk4Cotq5ZZ0fGn4-382" value="" style="endArrow=none;dashed=1;html=1;rounded=0;" parent="1" edge="1">
          <mxGeometry width="50" height="50" relative="1" as="geometry">
            <mxPoint x="680" y="530.5" as="sourcePoint" />
            <mxPoint x="700" y="530.5" as="targetPoint" />
          </mxGeometry>
        </mxCell>
        <mxCell id="7YrPoQk4Cotq5ZZ0fGn4-383" value="" style="endArrow=none;html=1;rounded=0;exitX=1.003;exitY=0.951;exitDx=0;exitDy=0;entryX=0;entryY=0.5;entryDx=0;entryDy=0;exitPerimeter=0;" parent="1" source="7YrPoQk4Cotq5ZZ0fGn4-207" target="7YrPoQk4Cotq5ZZ0fGn4-384" edge="1">
          <mxGeometry width="50" height="50" relative="1" as="geometry">
            <mxPoint x="102.5" y="680" as="sourcePoint" />
            <mxPoint x="407" y="650" as="targetPoint" />
            <Array as="points">
              <mxPoint x="182.5" y="680" />
              <mxPoint x="370" y="680" />
              <mxPoint x="370" y="648" />
            </Array>
          </mxGeometry>
        </mxCell>
        <mxCell id="7YrPoQk4Cotq5ZZ0fGn4-384" value="&lt;font size=&quot;1&quot;&gt;Contains&lt;/font&gt;" style="rhombus;whiteSpace=wrap;html=1;fillColor=#6a00ff;fontColor=#ffffff;strokeColor=#3700CC;" parent="1" vertex="1">
          <mxGeometry x="410" y="618" width="70" height="60" as="geometry" />
        </mxCell>
        <mxCell id="7YrPoQk4Cotq5ZZ0fGn4-385" value="" style="endArrow=none;html=1;rounded=0;exitX=1;exitY=0.5;exitDx=0;exitDy=0;entryX=0;entryY=0.5;entryDx=0;entryDy=0;" parent="1" source="7YrPoQk4Cotq5ZZ0fGn4-384" target="7YrPoQk4Cotq5ZZ0fGn4-375" edge="1">
          <mxGeometry width="50" height="50" relative="1" as="geometry">
            <mxPoint x="490" y="647.89" as="sourcePoint" />
            <mxPoint x="540" y="648" as="targetPoint" />
          </mxGeometry>
        </mxCell>
        <mxCell id="7YrPoQk4Cotq5ZZ0fGn4-386" value="&lt;font style=&quot;font-size: 10px;&quot;&gt;1&lt;/font&gt;" style="text;html=1;align=center;verticalAlign=middle;resizable=0;points=[];autosize=1;strokeColor=none;fillColor=none;" parent="1" vertex="1">
          <mxGeometry x="530" y="618" width="30" height="30" as="geometry" />
        </mxCell>
        <mxCell id="7YrPoQk4Cotq5ZZ0fGn4-387" value="&lt;font style=&quot;font-size: 10px;&quot;&gt;M&lt;/font&gt;" style="text;html=1;align=center;verticalAlign=middle;resizable=0;points=[];autosize=1;strokeColor=none;fillColor=none;rotation=0;" parent="1" vertex="1">
          <mxGeometry x="92.5" y="653" width="30" height="30" as="geometry" />
        </mxCell>
        <mxCell id="7YrPoQk4Cotq5ZZ0fGn4-388" value="" style="endArrow=none;html=1;rounded=0;exitX=1.001;exitY=0.527;exitDx=0;exitDy=0;exitPerimeter=0;entryX=1;entryY=0.5;entryDx=0;entryDy=0;" parent="1" source="7YrPoQk4Cotq5ZZ0fGn4-375" target="7YrPoQk4Cotq5ZZ0fGn4-390" edge="1">
          <mxGeometry width="50" height="50" relative="1" as="geometry">
            <mxPoint x="760" y="650" as="sourcePoint" />
            <mxPoint x="320" y="280" as="targetPoint" />
            <Array as="points">
              <mxPoint x="800" y="650" />
              <mxPoint x="800" y="275" />
            </Array>
          </mxGeometry>
        </mxCell>
        <mxCell id="7YrPoQk4Cotq5ZZ0fGn4-390" value="&lt;font size=&quot;1&quot;&gt;Belongs_To&lt;/font&gt;" style="rhombus;whiteSpace=wrap;html=1;fillColor=#6a00ff;fontColor=#ffffff;strokeColor=#3700CC;" parent="1" vertex="1">
          <mxGeometry x="320" y="245" width="70" height="60" as="geometry" />
        </mxCell>
        <mxCell id="7YrPoQk4Cotq5ZZ0fGn4-392" value="" style="endArrow=none;html=1;rounded=0;entryX=0;entryY=0.5;entryDx=0;entryDy=0;exitX=1;exitY=0.5;exitDx=0;exitDy=0;" parent="1" source="7YrPoQk4Cotq5ZZ0fGn4-24" target="7YrPoQk4Cotq5ZZ0fGn4-390" edge="1">
          <mxGeometry width="50" height="50" relative="1" as="geometry">
            <mxPoint x="220" y="280" as="sourcePoint" />
            <mxPoint x="280" y="280" as="targetPoint" />
          </mxGeometry>
        </mxCell>
        <mxCell id="7YrPoQk4Cotq5ZZ0fGn4-393" value="&lt;font style=&quot;font-size: 10px;&quot;&gt;M&lt;/font&gt;" style="text;html=1;align=center;verticalAlign=middle;resizable=0;points=[];autosize=1;strokeColor=none;fillColor=none;rotation=0;" parent="1" vertex="1">
          <mxGeometry x="740" y="618" width="30" height="30" as="geometry" />
        </mxCell>
        <mxCell id="7YrPoQk4Cotq5ZZ0fGn4-394" value="&lt;font style=&quot;font-size: 10px;&quot;&gt;1&lt;/font&gt;" style="text;html=1;align=center;verticalAlign=middle;resizable=0;points=[];autosize=1;strokeColor=none;fillColor=none;rotation=0;" parent="1" vertex="1">
          <mxGeometry x="120" y="270" width="30" height="30" as="geometry" />
        </mxCell>
        <mxCell id="7YrPoQk4Cotq5ZZ0fGn4-395" value="" style="endArrow=none;html=1;rounded=0;exitX=0.728;exitY=0.001;exitDx=0;exitDy=0;exitPerimeter=0;entryX=0.505;entryY=0.95;entryDx=0;entryDy=0;entryPerimeter=0;" parent="1" source="7YrPoQk4Cotq5ZZ0fGn4-272" target="7YrPoQk4Cotq5ZZ0fGn4-396" edge="1">
          <mxGeometry width="50" height="50" relative="1" as="geometry">
            <mxPoint x="-600" y="840" as="sourcePoint" />
            <mxPoint x="-540" y="770" as="targetPoint" />
            <Array as="points">
              <mxPoint x="-620" y="830" />
              <mxPoint x="-580" y="830" />
              <mxPoint x="-530" y="830" />
            </Array>
          </mxGeometry>
        </mxCell>
        <mxCell id="7YrPoQk4Cotq5ZZ0fGn4-396" value="Borrows&amp;nbsp;" style="rhombus;whiteSpace=wrap;html=1;fillColor=#6a00ff;fontColor=#ffffff;strokeColor=#3700CC;" parent="1" vertex="1">
          <mxGeometry x="-565" y="730" width="70" height="60" as="geometry" />
        </mxCell>
        <mxCell id="7YrPoQk4Cotq5ZZ0fGn4-397" value="" style="endArrow=none;html=1;rounded=0;exitX=0.5;exitY=0;exitDx=0;exitDy=0;entryX=0.5;entryY=1;entryDx=0;entryDy=0;" parent="1" source="7YrPoQk4Cotq5ZZ0fGn4-396" target="7YrPoQk4Cotq5ZZ0fGn4-191" edge="1">
          <mxGeometry width="50" height="50" relative="1" as="geometry">
            <mxPoint x="-540.4" y="710" as="sourcePoint" />
            <mxPoint x="-540.4" y="690" as="targetPoint" />
          </mxGeometry>
        </mxCell>
        <mxCell id="7YrPoQk4Cotq5ZZ0fGn4-398" value="&lt;font style=&quot;font-size: 10px;&quot;&gt;N&lt;/font&gt;" style="text;html=1;align=center;verticalAlign=middle;resizable=0;points=[];autosize=1;strokeColor=none;fillColor=none;rotation=0;" parent="1" vertex="1">
          <mxGeometry x="-560" y="678" width="30" height="30" as="geometry" />
        </mxCell>
        <mxCell id="7YrPoQk4Cotq5ZZ0fGn4-399" value="&lt;font style=&quot;font-size: 10px;&quot;&gt;M&lt;/font&gt;" style="text;html=1;align=center;verticalAlign=middle;resizable=0;points=[];autosize=1;strokeColor=none;fillColor=none;rotation=0;" parent="1" vertex="1">
          <mxGeometry x="-630" y="940" width="30" height="30" as="geometry" />
        </mxCell>
        <mxCell id="7YrPoQk4Cotq5ZZ0fGn4-400" value="Address" style="ellipse;whiteSpace=wrap;html=1;" parent="1" vertex="1">
          <mxGeometry x="-252.5" y="205" width="80" height="40" as="geometry" />
        </mxCell>
        <mxCell id="7YrPoQk4Cotq5ZZ0fGn4-401" value="" style="endArrow=none;html=1;rounded=0;exitX=0.5;exitY=0;exitDx=0;exitDy=0;entryX=0.5;entryY=1;entryDx=0;entryDy=0;" parent="1" source="7YrPoQk4Cotq5ZZ0fGn4-333" target="7YrPoQk4Cotq5ZZ0fGn4-400" edge="1">
          <mxGeometry width="50" height="50" relative="1" as="geometry">
            <mxPoint x="-300" y="281" as="sourcePoint" />
            <mxPoint x="-208" y="270" as="targetPoint" />
          </mxGeometry>
        </mxCell>
        <mxCell id="7YrPoQk4Cotq5ZZ0fGn4-404" value="" style="shape=link;html=1;rounded=0;entryX=0.057;entryY=0.502;entryDx=0;entryDy=0;entryPerimeter=0;exitX=0.848;exitY=-0.038;exitDx=0;exitDy=0;exitPerimeter=0;" parent="1" source="7YrPoQk4Cotq5ZZ0fGn4-344" target="7YrPoQk4Cotq5ZZ0fGn4-340" edge="1">
          <mxGeometry width="100" relative="1" as="geometry">
            <mxPoint x="-590" y="420" as="sourcePoint" />
            <mxPoint x="-270" y="424.75" as="targetPoint" />
            <Array as="points">
              <mxPoint x="-580" y="425" />
            </Array>
          </mxGeometry>
        </mxCell>
        <mxCell id="7YrPoQk4Cotq5ZZ0fGn4-406" value="" style="shape=link;html=1;rounded=0;entryX=0.504;entryY=0.97;entryDx=0;entryDy=0;entryPerimeter=0;" parent="1" target="7YrPoQk4Cotq5ZZ0fGn4-322" edge="1">
          <mxGeometry width="100" relative="1" as="geometry">
            <mxPoint x="-470" y="330" as="sourcePoint" />
            <mxPoint x="-400" y="360" as="targetPoint" />
          </mxGeometry>
        </mxCell>
        <mxCell id="7YrPoQk4Cotq5ZZ0fGn4-407" value="" style="shape=link;html=1;rounded=0;entryX=0;entryY=0.5;entryDx=0;entryDy=0;exitX=0.946;exitY=0.483;exitDx=0;exitDy=0;exitPerimeter=0;" parent="1" source="7YrPoQk4Cotq5ZZ0fGn4-347" target="7YrPoQk4Cotq5ZZ0fGn4-191" edge="1">
          <mxGeometry width="100" relative="1" as="geometry">
            <mxPoint x="-740" y="690" as="sourcePoint" />
            <mxPoint x="-640" y="690" as="targetPoint" />
          </mxGeometry>
        </mxCell>
      </root>
    </mxGraphModel>
  </diagram>
</mxfile>
